<svg width="16" height="17" viewBox="0 0 16 17" fill="none" xmlns="http://www.w3.org/2000/svg">
<circle cx="8" cy="8.5" r="8" fill="#CECECE"/>
<path fill-rule="evenodd" clip-rule="evenodd" d="M10.4307 6.95349C10.6748 6.70934 10.6748 6.31349 10.4307 6.06934C10.1865 5.82518 9.79066 5.82518 9.54651 6.06934L8 7.61585L6.45349 6.06934C6.20934 5.82518 5.81349 5.82518 5.56934 6.06934C5.32518 6.31349 5.32518 6.70934 5.56934 6.95349L7.11584 8.5L5.5695 10.0463C5.32535 10.2905 5.32535 10.6863 5.5695 10.9305C5.81365 11.1747 6.2095 11.1747 6.45365 10.9305L8 9.38416L9.54635 10.9305C9.7905 11.1747 10.1863 11.1747 10.4305 10.9305C10.6747 10.6863 10.6747 10.2905 10.4305 10.0463L8.88415 8.5L10.4307 6.95349Z" fill="white"/>
</svg>
