<svg width="24" height="24" viewBox="0 0 24 24" fill="none" xmlns="http://www.w3.org/2000/svg">
<path d="M5.91845 10.2756C6.17536 9.79667 6.1153 9.20031 5.72493 8.82222V8.82222C5.23663 8.34928 4.4381 8.40296 4.08793 8.98563C3.47604 10.0038 3.08226 11.0824 3.00003 12.22H5.26202C5.34176 11.5312 5.58584 10.8956 5.91845 10.2756ZM5.26199 14.4171H3C3.22556 15.9576 3.79102 17.3836 4.80922 18.7035L6.39632 17.1646C5.8292 16.286 5.37643 15.4071 5.26199 14.4171ZM6.39635 20.2424C7.75461 21.2306 9.22558 21.7811 10.811 22V19.8014C9.79266 19.6919 8.88554 19.2539 7.98011 18.7036L6.39635 20.2424ZM13.0746 4.63875V3.59545C13.0746 2.71172 12.0123 2.26237 11.3782 2.87786L8.792 5.38792C8.36072 5.80652 8.39348 6.50828 8.8619 6.88486L11.448 8.96406C12.1024 9.49015 13.0746 9.02433 13.0746 8.1847V6.836C16.2455 7.38637 18.7347 10.023 18.7347 13.3194C18.7347 16.6158 16.2455 19.2539 13.0746 19.8013V22C17.4909 21.4494 21 17.7137 21 13.3194C21 8.92355 17.4909 5.18771 13.0746 4.63875Z" fill="black"/>
</svg>
