<svg width="18" height="18" viewBox="0 0 18 18" fill="none" xmlns="http://www.w3.org/2000/svg">
<path d="M9.88311 3.30808C11.4215 3.30808 12.9599 3.30808 14.4982 3.30808C14.5166 3.30808 14.5356 3.30759 14.554 3.30808C14.6505 3.31252 14.7262 3.35047 14.767 3.44116C14.8083 3.53284 14.7849 3.61417 14.7182 3.68416C14.5415 3.86899 14.3638 4.05284 14.1862 4.23718C13.7801 4.65909 13.3739 5.0815 12.9678 5.50341C12.8937 5.5808 12.82 5.65867 12.7434 5.73409C12.6488 5.82773 12.5318 5.86618 12.3999 5.86618C11.1851 5.86618 9.9702 5.86618 8.75533 5.86569C6.87504 5.86569 4.99425 5.8647 3.11396 5.86421C2.96714 5.86421 2.87905 5.80112 2.85566 5.67592C2.84122 5.60101 2.87308 5.53989 2.92434 5.48715C3.0632 5.34322 3.20205 5.1993 3.34041 5.05488C3.79481 4.5822 4.2492 4.10903 4.7036 3.63635C4.75785 3.57966 4.81359 3.52446 4.86684 3.46728C4.96986 3.3554 5.09827 3.30808 5.24957 3.30808C6.79392 3.30857 8.33876 3.30808 9.88311 3.30808Z" fill="#386EEC"/>
<path d="M9.88751 10.0622C8.34714 10.0622 6.80628 10.0622 5.26591 10.0622C5.10615 10.0622 4.97277 10.0124 4.86129 9.89557C4.37255 9.38444 3.88133 8.87529 3.3906 8.36564C3.23632 8.20496 3.08004 8.04625 2.92625 7.88507C2.81228 7.7653 2.83866 7.59476 2.98249 7.53364C3.0248 7.5159 3.07457 7.50998 3.12135 7.50998C4.49598 7.5085 5.87061 7.5085 7.24525 7.50801C8.95781 7.50801 10.6704 7.50801 12.3829 7.50653C12.5387 7.50653 12.6676 7.55681 12.7761 7.67017C13.351 8.27051 13.9278 8.86839 14.5041 9.46725C14.5698 9.53576 14.636 9.60329 14.7022 9.6713C14.7878 9.75904 14.8092 9.84135 14.7664 9.93303C14.7206 10.0301 14.6375 10.0646 14.5335 10.0646C12.9847 10.0646 11.4358 10.0646 9.88701 10.0646V10.0627L9.88751 10.0622Z" fill="#386EEC"/>
<path d="M7.75701 14.2587C6.21018 14.2587 4.66334 14.2587 3.11651 14.2587C2.97118 14.2587 2.88607 14.1995 2.8582 14.0773C2.84029 13.9994 2.87313 13.9368 2.92539 13.8826C3.06126 13.7412 3.19763 13.6007 3.3335 13.4597C3.79138 12.9841 4.24876 12.5084 4.70664 12.0333C4.76089 11.9766 4.81713 11.9219 4.86988 11.8642C4.97291 11.7514 5.1028 11.706 5.25261 11.706C8.34429 11.706 11.436 11.705 14.5276 11.704C14.6152 11.704 14.6924 11.7252 14.7456 11.7992C14.8118 11.8908 14.8004 11.9939 14.7138 12.0841C14.5426 12.263 14.3709 12.4409 14.1987 12.6188C13.7493 13.0851 13.2993 13.5514 12.8499 14.0172C12.8225 14.0453 12.7942 14.0724 12.7678 14.1015C12.6658 14.2153 12.5354 14.2597 12.3851 14.2597C10.8422 14.2597 9.29937 14.2597 7.75701 14.2597V14.2587Z" fill="#386EEC"/>
</svg>
