<svg width="60" height="18" viewBox="0 0 60 18" fill="none" xmlns="http://www.w3.org/2000/svg">
<path d="M3.60826 4.36235L3.61033 4.36545L3.60829 4.36442V9.68269C3.60832 10.1833 3.48765 10.6764 3.25663 11.1201C3.02557 11.5638 2.69103 11.9448 2.28147 12.2306L0.373226 13.5641C0.33741 13.5884 0.295705 13.6025 0.25254 13.6049C0.209349 13.6073 0.166335 13.598 0.128053 13.5778C0.0897458 13.5576 0.0576298 13.5274 0.0351033 13.4904C0.0125517 13.4534 0.000445421 13.4109 4.2721e-05 13.3675V2.77752C-0.00139198 2.51775 0.0333163 2.25905 0.103136 2.0089L0.105174 2.00993C0.225986 1.58965 0.443951 1.20392 0.741375 0.884135C1.0388 0.564348 1.40725 0.319538 1.81678 0.169625C2.22628 0.0197126 2.66528 -0.0310692 3.09804 0.0214142C3.53079 0.0738976 3.9451 0.228164 4.30724 0.471658L8.14744 3.05786C8.25147 3.12822 8.37407 3.16581 8.49951 3.16581C8.62495 3.16581 8.74755 3.12822 8.85157 3.05786L12.6918 0.471658C13.0319 0.242828 13.4183 0.0925507 13.8232 0.0316555C14.2281 -0.0292405 14.6415 0.000761978 15.0334 0.119502C15.4254 0.238242 15.7862 0.442762 16.09 0.71832C16.3936 0.993878 16.6326 1.33361 16.7897 1.71304C16.8224 1.7919 16.8269 1.87968 16.8025 1.9615C16.7781 2.04332 16.7262 2.11415 16.6557 2.162L10.0268 6.6258C9.57564 6.93124 9.04377 7.09443 8.49951 7.09443C7.95523 7.09443 7.42338 6.93124 6.97219 6.6258L3.60826 4.36235Z" fill="black"/>
<path d="M14.6072 5.69687L16.5165 4.36342C16.5524 4.33797 16.5945 4.32292 16.6383 4.3199C16.6821 4.31689 16.7259 4.32603 16.7649 4.34633C16.8038 4.36663 16.8365 4.39731 16.8592 4.43499C16.882 4.47268 16.894 4.51591 16.8939 4.55997V15.1499C16.8935 15.4099 16.8571 15.6686 16.7856 15.9186L13.2804 13.5641V8.2448C13.2804 7.74422 13.4011 7.25105 13.6321 6.80738C13.8631 6.36371 14.1977 5.98271 14.6072 5.69687Z" fill="black"/>
<path d="M13.2783 13.5641L13.2803 13.5651L16.7834 15.9186C16.6626 16.3388 16.4447 16.7246 16.1472 17.0444C15.8498 17.3641 15.4814 17.609 15.0719 17.7589C14.6623 17.9088 14.2233 17.9596 13.7906 17.9071C13.3578 17.8546 12.9435 17.7003 12.5814 17.4568L8.74224 14.8706C8.63801 14.8003 8.51526 14.7628 8.38967 14.7628C8.26408 14.7628 8.14132 14.8003 8.03708 14.8706L4.1979 17.4568C3.85777 17.6857 3.47127 17.8359 3.06627 17.8968C2.66128 17.9577 2.24787 17.9277 1.85581 17.809C1.46375 17.6903 1.10283 17.4858 0.799033 17.2102C0.495242 16.9346 0.256135 16.5949 0.0989287 16.2155C0.0661837 16.1364 0.0616277 16.0485 0.0860667 15.9665C0.110481 15.8845 0.16238 15.8135 0.232954 15.7655L6.86183 11.3017C7.31324 10.9963 7.84524 10.8331 8.38967 10.8331C8.93408 10.8331 9.46609 10.9963 9.91751 11.3017L13.2783 13.5641Z" fill="black"/>
<path fill-rule="evenodd" clip-rule="evenodd" d="M24.0402 10.0106V8.04515C24.4052 8.35032 24.9031 8.52825 25.5701 8.43825C26.7887 8.2748 27.7475 7.26411 27.7351 6.02998C27.7268 4.65101 26.6062 3.62894 25.2289 3.62894C24.7943 3.61849 24.3706 3.76538 24.0351 4.04273V3.81618C24.0352 3.7978 24.0317 3.77958 24.0248 3.76257C24.0178 3.74557 24.0076 3.73012 23.9946 3.71712C23.9817 3.70413 23.9663 3.69385 23.9493 3.68688C23.9324 3.67991 23.9142 3.67639 23.8959 3.67653H22.8444C22.826 3.67639 22.8079 3.67991 22.7909 3.68688C22.774 3.69385 22.7586 3.70413 22.7457 3.71712C22.7327 3.73012 22.7224 3.74557 22.7155 3.76257C22.7086 3.77958 22.7051 3.7978 22.7052 3.81618V10.0117C22.7052 10.0487 22.7199 10.0842 22.746 10.1104C22.7721 10.1366 22.8074 10.1513 22.8444 10.1513H23.8959C23.8996 10.1515 23.9034 10.1514 23.9071 10.1513C23.9091 10.1512 23.9112 10.1511 23.9132 10.1509C23.917 10.1505 23.9209 10.15 23.9247 10.1494C23.9337 10.1478 23.9425 10.1454 23.951 10.1421L23.9546 10.1407L23.9584 10.139L23.9634 10.1366L23.9665 10.135C23.978 10.1288 23.9887 10.1211 23.998 10.1119C24.0115 10.0988 24.0222 10.083 24.0295 10.0656C24.0367 10.0482 24.0404 10.0295 24.0402 10.0106ZM25.234 4.82687C25.4653 4.8266 25.6917 4.89274 25.8867 5.01748C26.0817 5.14222 26.237 5.32035 26.3343 5.53082C26.4316 5.7413 26.4669 5.97532 26.4359 6.20525C26.4049 6.43518 26.309 6.65141 26.1595 6.82839C26.0099 7.00538 25.8131 7.13572 25.5921 7.20403C25.3711 7.27234 25.1353 7.27576 24.9124 7.21389C24.6896 7.15201 24.489 7.02743 24.3345 6.85485C24.1799 6.68227 24.0778 6.46891 24.0402 6.23998V5.84273C24.0875 5.55915 24.2333 5.30153 24.4519 5.11558C24.6704 4.92962 24.9475 4.82733 25.234 4.82687Z" fill="black"/>
<path d="M33.9959 13.3986C34.1675 13.2833 34.367 13.2168 34.5732 13.2061C34.5759 13.2059 34.5785 13.2059 34.5811 13.2061C34.5838 13.2063 34.5864 13.2067 34.5891 13.2072C34.5914 13.2077 34.5936 13.2084 34.5958 13.2091C34.5995 13.2104 34.603 13.2121 34.6063 13.2141C34.6095 13.2161 34.6125 13.2184 34.6153 13.221C34.6177 13.2232 34.6199 13.2256 34.6218 13.2282C34.6245 13.2318 34.6267 13.2356 34.6284 13.2396C34.6315 13.2467 34.633 13.2543 34.633 13.262V13.6841C34.6333 13.6983 34.6281 13.712 34.6185 13.7224C34.6089 13.7329 34.5956 13.7391 34.5815 13.7399C34.4633 13.7408 34.3473 13.7721 34.2448 13.831C34.1422 13.8899 34.0565 13.9743 33.9959 14.0761V15.1034C33.9959 15.1183 33.9901 15.1326 33.9797 15.1433C33.9692 15.1539 33.9551 15.16 33.9403 15.1603H33.5186C33.5037 15.16 33.4896 15.1539 33.4792 15.1433C33.4755 15.1395 33.4724 15.1353 33.4699 15.1307C33.4682 15.1275 33.4667 15.1242 33.4656 15.1208C33.4639 15.1152 33.4629 15.1093 33.4629 15.1034V13.3241C33.4629 13.3092 33.4688 13.2948 33.4792 13.2842C33.4896 13.2736 33.5037 13.2674 33.5186 13.2672H33.9403C33.9551 13.2674 33.9692 13.2736 33.9797 13.2842C33.9901 13.2948 33.9959 13.3092 33.9959 13.3241V13.3986Z" fill="black"/>
<path d="M33.0877 13.2062C32.8815 13.2169 32.682 13.2834 32.5103 13.3987V13.3242C32.5103 13.3131 32.5071 13.3024 32.5012 13.2932L32.5001 13.2915C32.4992 13.2902 32.4981 13.2888 32.4971 13.2875C32.4961 13.2864 32.4951 13.2853 32.4941 13.2843C32.4837 13.2737 32.4695 13.2675 32.4547 13.2673H32.033C32.0182 13.2675 32.004 13.2737 31.9936 13.2843C31.9832 13.2949 31.9774 13.3093 31.9774 13.3242V15.1035C31.9774 15.1184 31.9832 15.1327 31.9936 15.1434C32.004 15.154 32.0182 15.1601 32.033 15.1604H32.4547C32.4695 15.1601 32.4837 15.154 32.4941 15.1434C32.5045 15.1327 32.5103 15.1184 32.5103 15.1035V14.0762C32.571 13.9744 32.6567 13.89 32.7592 13.8311C32.8618 13.7722 32.9778 13.7409 33.0959 13.74C33.1101 13.7392 33.1233 13.733 33.1329 13.7225C33.1425 13.7121 33.1478 13.6984 33.1475 13.6842V13.2621C33.1475 13.2544 33.1459 13.2468 33.1429 13.2397C33.1415 13.2367 33.14 13.2337 33.1381 13.2309C33.1357 13.2273 33.1329 13.224 33.1297 13.2211C33.1269 13.2184 33.1238 13.2161 33.1205 13.2141C33.1173 13.2121 33.1139 13.2105 33.1103 13.2092C33.1065 13.2079 33.1025 13.207 33.0986 13.2065C33.095 13.2061 33.0913 13.206 33.0877 13.2062Z" fill="black"/>
<path d="M37.5443 13.3986C37.7158 13.2829 37.9154 13.2163 38.1217 13.2061C38.1294 13.2056 38.1371 13.2066 38.1444 13.2091C38.1517 13.2117 38.1584 13.2157 38.1641 13.2209C38.1698 13.2261 38.1744 13.2325 38.1775 13.2396C38.1807 13.2466 38.1824 13.2543 38.1825 13.262V13.6841C38.1828 13.6984 38.1774 13.7123 38.1676 13.7228C38.1606 13.7302 38.1517 13.7355 38.142 13.7381C38.1381 13.7392 38.134 13.7398 38.1299 13.7399C38.0119 13.7407 37.8961 13.7721 37.7936 13.831C37.6913 13.8899 37.6057 13.9743 37.5454 14.0761V15.1034C37.5454 15.1185 37.5394 15.1329 37.5288 15.1436C37.5181 15.1543 37.5037 15.1603 37.4887 15.1603H37.0681C37.053 15.1603 37.0386 15.1543 37.028 15.1436C37.0173 15.1329 37.0114 15.1185 37.0114 15.1034V13.3241C37.0114 13.309 37.0173 13.2945 37.028 13.2838C37.0386 13.2732 37.053 13.2672 37.0681 13.2672H37.4876C37.5027 13.2672 37.5171 13.2732 37.5278 13.2838C37.5384 13.2945 37.5443 13.309 37.5443 13.3241V13.3986Z" fill="black"/>
<path d="M31.5413 13.2672H31.1196C31.0889 13.2672 31.064 13.2922 31.064 13.323V15.1044C31.064 15.1353 31.0889 15.1603 31.1196 15.1603H31.5413C31.572 15.1603 31.5969 15.1353 31.5969 15.1044V13.323C31.5969 13.2922 31.572 13.2672 31.5413 13.2672Z" fill="black"/>
<path d="M31.6629 12.7789C31.6629 12.9629 31.5143 13.112 31.3309 13.112C31.1476 13.112 30.999 12.9629 30.999 12.7789C30.999 12.5949 31.1476 12.4458 31.3309 12.4458C31.5143 12.4458 31.6629 12.5949 31.6629 12.7789Z" fill="black"/>
<path fill-rule="evenodd" clip-rule="evenodd" d="M35.7949 13.2051C35.5963 13.2053 35.4023 13.2646 35.2373 13.3754C35.0723 13.4863 34.9437 13.6437 34.8679 13.8278C34.7921 14.012 34.7723 14.2145 34.8112 14.4099C34.8501 14.6053 34.9458 14.7847 35.0862 14.9255C35.2267 15.0663 35.4056 15.1622 35.6004 15.201C35.7951 15.2398 35.997 15.2198 36.1804 15.1435C36.3638 15.0672 36.5206 14.938 36.6309 14.7724C36.7412 14.6067 36.8 14.4119 36.8 14.2127C36.7997 13.9454 36.6937 13.6891 36.5053 13.5002C36.3168 13.3112 36.0613 13.2051 35.7949 13.2051ZM35.7949 14.6999C35.6988 14.6999 35.605 14.6714 35.5251 14.6178C35.4452 14.5643 35.383 14.4882 35.3463 14.3992C35.3095 14.3101 35.2999 14.2122 35.3186 14.1176C35.3374 14.0231 35.3836 13.9363 35.4515 13.8682C35.5194 13.8 35.6059 13.7536 35.7001 13.7348C35.7943 13.716 35.892 13.7257 35.9807 13.7625C36.0694 13.7994 36.1452 13.8619 36.1986 13.942C36.252 14.0221 36.2804 14.1163 36.2804 14.2127C36.2804 14.3419 36.2293 14.4658 36.1382 14.5572C36.0472 14.6486 35.9237 14.6999 35.7949 14.6999Z" fill="black"/>
<path d="M30.6289 13.8341C30.6342 13.8309 30.6401 13.8291 30.6463 13.8289C30.6502 13.8287 30.654 13.8292 30.6578 13.8303C30.6599 13.8309 30.662 13.8318 30.664 13.8328C30.6694 13.8356 30.6741 13.8397 30.6775 13.8448C30.681 13.85 30.683 13.8559 30.6835 13.862V15.1034C30.6835 15.1198 30.677 15.1356 30.6654 15.1473C30.6538 15.1589 30.6381 15.1655 30.6217 15.1655H30.2093C30.1929 15.1655 30.1772 15.1589 30.1656 15.1473C30.154 15.1356 30.1475 15.1198 30.1475 15.1034V14.4123C30.1474 14.3891 30.1495 14.3659 30.1537 14.343C30.1626 14.281 30.1841 14.2214 30.2169 14.168C30.2497 14.1146 30.2931 14.0686 30.3444 14.0327L30.6289 13.8341Z" fill="black"/>
<path d="M30.6526 13.4482C30.6526 13.4457 30.652 13.4431 30.651 13.4406C30.6506 13.4396 30.6502 13.4386 30.6497 13.4377C30.6491 13.4365 30.6485 13.4353 30.6478 13.4341C30.6451 13.4295 30.6418 13.4249 30.6392 13.4203C30.6395 13.4179 30.6395 13.4154 30.6392 13.413C30.6367 13.4081 30.6341 13.4033 30.6314 13.3985C30.6241 13.3859 30.6161 13.3738 30.6073 13.3623L30.5959 13.3468L30.5866 13.3355L30.5743 13.322L30.5598 13.3075L30.5516 13.3003C30.5499 13.2998 30.5481 13.2998 30.5464 13.3003C30.541 13.2943 30.5347 13.289 30.5279 13.2848L30.5165 13.2765L30.4918 13.261H30.4836C30.4178 13.2256 30.3437 13.2088 30.2691 13.2123C30.1955 13.2169 30.1244 13.2408 30.0629 13.2817L29.4722 13.6551C29.4705 13.6562 29.4688 13.6572 29.467 13.6581L29.4629 13.6603L29.4601 13.6615L29.4571 13.6629L29.4541 13.664C29.4422 13.6685 29.4294 13.6708 29.4165 13.6706C29.3989 13.6701 29.3818 13.6647 29.367 13.6551L28.7969 13.2703C28.7355 13.2294 28.6644 13.2055 28.5908 13.201C28.5837 13.2004 28.5766 13.2002 28.5695 13.2002C28.5631 13.2002 28.5569 13.2005 28.5506 13.201H28.5361C28.453 13.2079 28.3738 13.24 28.3092 13.293C28.2446 13.346 28.1976 13.4174 28.1743 13.4979V13.5123C28.1743 13.5237 28.1691 13.5361 28.1671 13.5475C28.1666 13.553 28.1666 13.5586 28.1671 13.5641C28.166 13.5803 28.166 13.5965 28.1671 13.6127V15.1034C28.1669 15.1115 28.1684 15.1195 28.1714 15.1271C28.1722 15.1291 28.1732 15.1311 28.1742 15.1331L28.175 15.1346L28.1764 15.137L28.178 15.1394C28.1788 15.1405 28.1796 15.1416 28.1805 15.1427C28.1818 15.1443 28.1831 15.1458 28.1845 15.1472C28.1902 15.153 28.1969 15.1576 28.2044 15.1607C28.2075 15.162 28.2108 15.1631 28.2141 15.1639C28.2186 15.1649 28.2232 15.1655 28.2279 15.1655H28.6402C28.6419 15.1655 28.6436 15.1654 28.6452 15.1652C28.6467 15.1651 28.6481 15.165 28.6496 15.1647C28.6544 15.164 28.6592 15.1626 28.6638 15.1607C28.6712 15.1576 28.678 15.153 28.6836 15.1472C28.6893 15.1414 28.6937 15.1346 28.6967 15.1271C28.6997 15.1195 28.7012 15.1115 28.7011 15.1034V13.8465L29.0248 14.0637L29.2011 14.1827C29.2104 14.1895 29.2204 14.1954 29.231 14.2003C29.2965 14.2361 29.3706 14.2534 29.4452 14.2503C29.5199 14.2472 29.5923 14.2239 29.6547 14.1827L30.1557 13.8455L30.6403 13.5186C30.6455 13.5141 30.6499 13.5087 30.6532 13.5026C30.6548 13.4997 30.6561 13.4966 30.6571 13.4934L30.6578 13.4912L30.6584 13.4889L30.6591 13.4856C30.6613 13.4728 30.6591 13.4595 30.6526 13.4482Z" fill="black"/>
<path d="M44.934 13.2786C45.1057 13.1633 45.3052 13.0968 45.5114 13.0861C45.5187 13.0856 45.526 13.0865 45.533 13.0888C45.5351 13.0895 45.5372 13.0903 45.5393 13.0913L45.541 13.0921L45.5431 13.0932C45.5462 13.095 45.5492 13.0971 45.552 13.0995C45.5575 13.1043 45.5621 13.1102 45.5654 13.1168C45.5687 13.1234 45.5706 13.1305 45.5712 13.1379V13.5651C45.5714 13.5793 45.5662 13.5931 45.5566 13.6035C45.547 13.6139 45.5337 13.6202 45.5196 13.621C45.4014 13.6218 45.2855 13.6532 45.1829 13.7121C45.0803 13.771 44.9946 13.8554 44.934 13.9572V14.9844C44.934 14.9993 44.9282 15.0136 44.9178 15.0243C44.9074 15.0349 44.8932 15.041 44.8784 15.0413H44.4567C44.4418 15.041 44.4277 15.0349 44.4173 15.0243C44.4069 15.0136 44.4011 14.9993 44.4011 14.9844V13.2041C44.4011 13.1892 44.4069 13.1748 44.4173 13.1642C44.4277 13.1536 44.4418 13.1474 44.4567 13.1472H44.8784C44.8932 13.1474 44.9074 13.1536 44.9178 13.1642C44.9282 13.1748 44.934 13.1892 44.934 13.2041V13.2786Z" fill="black"/>
<path fill-rule="evenodd" clip-rule="evenodd" d="M43.1856 15.1034C42.987 15.1034 42.7929 15.0443 42.6278 14.9336C42.4626 14.8229 42.3339 14.6655 42.2579 14.4814C42.1819 14.2973 42.162 14.0947 42.2008 13.8992C42.2395 13.7038 42.3351 13.5242 42.4756 13.3833C42.616 13.2424 42.7949 13.1464 42.9897 13.1076C43.1845 13.0687 43.3864 13.0886 43.5699 13.1649C43.7533 13.2412 43.9102 13.3703 44.0205 13.536C44.1308 13.7017 44.1897 13.8965 44.1897 14.0958C44.1895 14.3629 44.0836 14.6191 43.8953 14.808C43.7071 14.9969 43.4518 15.1031 43.1856 15.1034ZM43.1856 13.6086C43.0896 13.6086 42.9957 13.6371 42.9158 13.6907C42.836 13.7442 42.7738 13.8203 42.737 13.9093C42.7002 13.9984 42.6906 14.0963 42.7094 14.1909C42.7281 14.2854 42.7743 14.3722 42.8423 14.4403C42.9102 14.5085 42.9967 14.5549 43.0909 14.5737C43.1851 14.5925 43.2827 14.5828 43.3714 14.5459C43.4602 14.5091 43.536 14.4466 43.5893 14.3665C43.6427 14.2864 43.6712 14.1922 43.6712 14.0958C43.6714 14.0316 43.6591 13.968 43.6348 13.9085C43.6106 13.8491 43.5748 13.7951 43.5297 13.7496C43.4846 13.704 43.431 13.6678 43.372 13.6431C43.3129 13.6184 43.2496 13.6056 43.1856 13.6054V13.6086Z" fill="black"/>
<path d="M45.9423 12.4458H46.4433C46.4741 12.4458 46.499 12.4708 46.499 12.5017V14.9855C46.499 15.0163 46.4741 15.0413 46.4433 15.0413H45.9423C45.9116 15.0413 45.8866 15.0163 45.8866 14.9855V12.5017C45.8866 12.4708 45.9116 12.4458 45.9423 12.4458Z" fill="black"/>
<path fill-rule="evenodd" clip-rule="evenodd" d="M48.1928 12.5027V13.291C48.108 13.2233 48.0098 13.1747 47.9047 13.1483C47.7996 13.1219 47.6901 13.1183 47.5835 13.1379C47.3327 13.1608 47.1007 13.2815 46.9375 13.4741C46.7743 13.6666 46.6928 13.9157 46.7104 14.1679C46.7281 14.42 46.8436 14.6552 47.032 14.8229C47.2205 14.9907 47.467 15.0776 47.7186 15.0651C47.8928 15.0689 48.0626 15.0098 48.197 14.8986V14.9886C48.1969 14.9972 48.1989 15.0057 48.2026 15.0133C48.2053 15.0189 48.2088 15.024 48.2132 15.0284C48.2236 15.0391 48.2378 15.0452 48.2526 15.0455H48.6743C48.6891 15.0452 48.7033 15.0391 48.7137 15.0284C48.7241 15.0178 48.7299 15.0035 48.7299 14.9886V12.5058C48.7299 12.4909 48.7241 12.4766 48.7137 12.4659C48.7033 12.4553 48.6891 12.4492 48.6743 12.4489H48.2526C48.2452 12.4485 48.2377 12.4495 48.2307 12.452C48.2236 12.4545 48.2171 12.4583 48.2116 12.4633C48.206 12.4683 48.2015 12.4744 48.1983 12.4811C48.1962 12.4855 48.1947 12.4901 48.1938 12.4948C48.1933 12.4974 48.193 12.5 48.1928 12.5027ZM47.7145 14.5799C47.6218 14.5801 47.531 14.5536 47.4529 14.5036C47.3747 14.4536 47.3124 14.3823 47.2734 14.2979C47.2344 14.2136 47.2202 14.1198 47.2326 14.0277C47.2449 13.9355 47.2833 13.8488 47.3432 13.7778C47.4031 13.7069 47.482 13.6546 47.5705 13.6271C47.6591 13.5997 47.7536 13.5983 47.8429 13.623C47.9323 13.6477 48.0127 13.6976 48.0747 13.7667C48.1367 13.8358 48.1777 13.9213 48.1928 14.013V14.1723C48.1739 14.286 48.1154 14.3893 48.0279 14.4639C47.9403 14.5384 47.8293 14.5796 47.7145 14.5799Z" fill="black"/>
<path d="M39.5547 14.371L39.4969 14.4113C39.4915 14.4148 39.4852 14.4166 39.4787 14.4167C39.4723 14.4168 39.4659 14.4151 39.4604 14.4117C39.4565 14.4095 39.4532 14.4065 39.4506 14.403L39.4493 14.4013C39.4486 14.4002 39.4479 14.3991 39.4473 14.3979C39.4443 14.3922 39.4429 14.3857 39.4433 14.3792V13.1441C39.4433 13.1279 39.4498 13.1124 39.4612 13.1009C39.4681 13.094 39.4765 13.0889 39.4856 13.0859C39.4916 13.084 39.4978 13.083 39.5042 13.083H39.9165C39.9246 13.0829 39.9326 13.0844 39.9401 13.0874C39.943 13.0885 39.9458 13.0899 39.9485 13.0915C39.9528 13.094 39.9567 13.0971 39.9602 13.1005C39.966 13.1062 39.9705 13.113 39.9736 13.1205C39.9743 13.1219 39.9748 13.1234 39.9753 13.1249C39.9757 13.1263 39.9761 13.1276 39.9765 13.1289L39.977 13.1312L39.9773 13.1328C39.9777 13.1348 39.978 13.1369 39.9782 13.1389C39.9783 13.1406 39.9784 13.1423 39.9784 13.1441V13.832C39.9783 13.8376 39.978 13.8433 39.9777 13.8489L39.977 13.8596C39.9766 13.8661 39.976 13.8725 39.9753 13.8789C39.9744 13.8868 39.9734 13.8946 39.9722 13.9024C39.9628 13.9644 39.941 14.0239 39.908 14.0772C39.875 14.1306 39.8316 14.1766 39.7805 14.2127L39.5547 14.371Z" fill="black"/>
<path d="M39.4732 14.793L39.4856 14.821C39.4858 14.822 39.4859 14.8231 39.486 14.8242C39.4861 14.8259 39.4859 14.8276 39.4856 14.8292C39.4953 14.8467 39.5059 14.8637 39.5176 14.8799C39.5193 14.8818 39.5209 14.8838 39.5225 14.8858L39.5252 14.8893C39.5265 14.891 39.5277 14.8927 39.5289 14.8944L39.5392 14.9058L39.5506 14.9192L39.565 14.9337L39.5732 14.941V14.9461L39.5918 14.9617L39.6031 14.971L39.6279 14.9865L39.6351 14.9917C39.701 15.0267 39.7751 15.0431 39.8495 15.0392C39.9232 15.0351 39.9944 15.0111 40.0557 14.9699L40.6268 14.5851C40.6422 14.5751 40.6601 14.5698 40.6784 14.5698C40.6967 14.5698 40.7146 14.5751 40.7299 14.5851L41.3011 14.9699C41.3622 15.0115 41.4335 15.0354 41.5073 15.0392H41.5619C41.6449 15.0321 41.7238 14.9999 41.7882 14.9469C41.8526 14.8939 41.8995 14.8226 41.9227 14.7424C41.9231 14.7375 41.9231 14.7327 41.9227 14.7279C41.9261 14.7163 41.9288 14.7046 41.931 14.6927L41.9308 14.6902L41.9306 14.6865C41.9306 14.6846 41.9306 14.6827 41.9307 14.6808L41.931 14.6761C41.932 14.66 41.932 14.6437 41.931 14.6275V13.1461C41.931 13.138 41.9294 13.13 41.9262 13.1225L41.9248 13.1195L41.9234 13.1166C41.9227 13.1154 41.922 13.1142 41.9212 13.113C41.9204 13.1118 41.9196 13.1105 41.9187 13.1093C41.9169 13.107 41.9149 13.1047 41.9128 13.1026C41.907 13.0969 41.9002 13.0925 41.8927 13.0895C41.8852 13.0864 41.8772 13.085 41.8691 13.0851H41.4567C41.4487 13.085 41.4406 13.0864 41.4331 13.0895C41.4256 13.0925 41.4188 13.0969 41.413 13.1026C41.4116 13.104 41.4103 13.1055 41.409 13.107C41.4079 13.1084 41.4068 13.1098 41.4058 13.1112C41.4034 13.1148 41.4013 13.1186 41.3996 13.1225C41.3965 13.13 41.3949 13.138 41.3949 13.1461V14.3989L41.0722 14.1817L40.8959 14.0627C40.8932 14.0608 40.8904 14.059 40.8875 14.0573C40.8843 14.0553 40.881 14.0534 40.8776 14.0515C40.8734 14.0493 40.8692 14.0471 40.865 14.0451C40.7994 14.0093 40.7253 13.992 40.6507 13.9951C40.5761 13.9982 40.5037 14.0215 40.4413 14.0627L39.4557 14.7268C39.4505 14.7382 39.4494 14.751 39.4526 14.7631C39.4529 14.7642 39.4532 14.7653 39.4536 14.7664L39.454 14.7676C39.455 14.7703 39.4561 14.7728 39.4575 14.7753C39.4596 14.7792 39.4622 14.7828 39.4653 14.786C39.4677 14.7886 39.4703 14.791 39.4732 14.793Z" fill="black"/>
<path d="M26.3928 13.2806H26.8505C26.8576 13.2812 26.8644 13.2834 26.8704 13.2872C26.8764 13.2909 26.8814 13.296 26.885 13.3021C26.8886 13.3081 26.8908 13.315 26.8912 13.3221C26.8917 13.3291 26.8905 13.3362 26.8877 13.3427L25.9042 15.8461C25.8985 15.8609 25.8884 15.8736 25.8753 15.8825C25.8622 15.8914 25.8467 15.896 25.831 15.8958H25.3773C25.37 15.8958 25.3627 15.894 25.3562 15.8905C25.3528 15.8887 25.3496 15.8865 25.3468 15.8839C25.3442 15.8816 25.3419 15.8789 25.3399 15.876C25.3357 15.8698 25.3331 15.8628 25.3323 15.8554C25.3314 15.8481 25.3324 15.8406 25.3351 15.8337L25.6011 15.1592L24.8866 13.3427C24.8852 13.3391 24.8843 13.3354 24.8838 13.3316C24.8834 13.3281 24.8834 13.3245 24.8838 13.321C24.8847 13.3136 24.8873 13.3066 24.8914 13.3005C24.8926 13.2988 24.8938 13.2971 24.8952 13.2956C24.8963 13.2944 24.8975 13.2932 24.8988 13.2921L24.9011 13.2901C24.9032 13.2885 24.9054 13.2871 24.9077 13.2859C24.9099 13.2847 24.9123 13.2837 24.9147 13.2829C24.9193 13.2814 24.924 13.2806 24.9289 13.2806H25.3866C25.4025 13.2808 25.4179 13.2857 25.431 13.2947C25.444 13.3038 25.4541 13.3165 25.4598 13.3313L25.8897 14.4248L26.3196 13.3313C26.3251 13.3163 26.3351 13.3034 26.3482 13.2944C26.3613 13.2853 26.3769 13.2805 26.3928 13.2806Z" fill="black"/>
<path fill-rule="evenodd" clip-rule="evenodd" d="M23.1876 12.5803H22.766C22.7512 12.5803 22.7371 12.5862 22.7266 12.5966C22.7162 12.6071 22.7103 12.6213 22.7103 12.6361V15.1189C22.7103 15.1262 22.7118 15.1335 22.7146 15.1403C22.7174 15.1471 22.7215 15.1532 22.7266 15.1584C22.7318 15.1636 22.7379 15.1677 22.7447 15.1705C22.7515 15.1733 22.7587 15.1748 22.766 15.1748H23.1876C23.195 15.1748 23.2022 15.1733 23.209 15.1705C23.2157 15.1677 23.2219 15.1636 23.227 15.1584C23.2322 15.1532 23.2363 15.1471 23.2391 15.1403C23.2407 15.1363 23.2419 15.1321 23.2426 15.1279L23.243 15.1249C23.2432 15.1229 23.2433 15.1209 23.2433 15.1189V15.0279C23.3775 15.1395 23.5474 15.1987 23.7217 15.1944C23.8509 15.1987 23.9796 15.1771 24.1004 15.1308C24.2212 15.0845 24.3316 15.0146 24.4251 14.925C24.5186 14.8354 24.5933 14.728 24.645 14.6091C24.6966 14.4901 24.7241 14.3621 24.7258 14.2323C24.7221 13.9929 24.6319 13.763 24.4718 13.5854C24.3117 13.4079 24.0927 13.2948 23.8557 13.2672C23.7483 13.248 23.638 13.2521 23.5324 13.2795C23.4267 13.3068 23.3281 13.3566 23.2433 13.4255V12.6361C23.2433 12.6346 23.2432 12.6331 23.2431 12.6316C23.2427 12.6258 23.2413 12.6201 23.2391 12.6148C23.2377 12.6113 23.2359 12.608 23.2339 12.605C23.2328 12.6034 23.2317 12.6019 23.2305 12.6005L23.2285 12.5982L23.227 12.5966C23.2219 12.5915 23.2157 12.5873 23.209 12.5845C23.2022 12.5817 23.195 12.5803 23.1876 12.5803ZM23.2433 14.3058V14.1475C23.2631 14.0268 23.3275 13.918 23.4236 13.8427C23.5197 13.7673 23.6405 13.7311 23.762 13.741C23.8835 13.751 23.9969 13.8065 24.0795 13.8965C24.1621 13.9864 24.208 14.1043 24.208 14.2267C24.208 14.349 24.1621 14.4669 24.0795 14.5569C23.9969 14.6468 23.8835 14.7023 23.762 14.7123C23.6405 14.7222 23.5197 14.686 23.4236 14.6107C23.3275 14.5354 23.2631 14.4265 23.2433 14.3058Z" fill="black"/>
<path fill-rule="evenodd" clip-rule="evenodd" d="M58.5114 4.13792V2.1724C58.5114 2.15348 58.5152 2.13475 58.5225 2.11734C58.5299 2.09992 58.5407 2.08417 58.5543 2.07104C58.5678 2.05791 58.5839 2.04766 58.6015 2.0409C58.6191 2.03414 58.6379 2.03102 58.6567 2.03171H59.7083C59.7267 2.03171 59.7448 2.03536 59.7618 2.04244C59.7787 2.04952 59.7941 2.0599 59.8071 2.07298C59.82 2.08606 59.8302 2.10158 59.8372 2.11864C59.8441 2.1357 59.8476 2.15397 59.8475 2.1724V8.36688C59.8475 8.37141 59.8473 8.37592 59.8469 8.38041C59.8467 8.3829 59.8464 8.38538 59.846 8.38785L59.845 8.39388C59.8433 8.40297 59.8407 8.41188 59.8372 8.42049C59.8302 8.43749 59.82 8.45294 59.807 8.46594C59.7941 8.47893 59.7787 8.48922 59.7617 8.49619C59.7448 8.50316 59.7266 8.50668 59.7083 8.50654H58.6567C58.6384 8.50668 58.6202 8.50316 58.6032 8.49621C58.5862 8.48925 58.5707 8.47898 58.5577 8.466C58.5446 8.45302 58.5343 8.43758 58.5272 8.42057C58.5202 8.40356 58.5165 8.38531 58.5165 8.36688V8.14033C58.1814 8.41761 57.758 8.56451 57.3237 8.55412C55.9464 8.55412 54.8258 7.53206 54.8176 6.15309C54.8052 4.91895 55.764 3.90826 56.9825 3.74481C57.6495 3.65481 58.1475 3.83274 58.5114 4.13792ZM56.6635 7.1646C56.8582 7.28956 57.0844 7.35603 57.3155 7.35619C57.6025 7.35618 57.8803 7.25397 58.0993 7.06776C58.3182 6.88155 58.4643 6.62342 58.5114 6.3393V5.94205C58.4736 5.71329 58.3714 5.50013 58.2169 5.32774C58.0624 5.15535 57.8619 5.03092 57.6391 4.96912C57.4164 4.90732 57.1807 4.91074 56.9599 4.97898C56.739 5.04721 56.5422 5.17741 56.3927 5.35422C56.2432 5.53102 56.1472 5.74705 56.116 5.97682C56.0849 6.20658 56.1199 6.44049 56.2169 6.65095C56.3139 6.86141 56.4689 7.03964 56.6635 7.1646Z" fill="black"/>
<path fill-rule="evenodd" clip-rule="evenodd" d="M45.5052 6.14064C45.5051 5.96143 45.4854 5.78277 45.4464 5.60789C45.1835 4.41927 44.1588 3.55133 42.8691 3.69823C42.4732 3.74507 42.0947 3.88812 41.7663 4.11497C41.438 4.34183 41.1698 4.64564 40.9849 5.00005C40.8001 5.35446 40.7042 5.74878 40.7055 6.14879C40.7069 6.54881 40.8055 6.94245 40.9928 7.29557C41.1801 7.64869 41.4504 7.95063 41.7803 8.17519C42.1102 8.39976 42.4897 8.54018 42.8859 8.58427C43.2822 8.62836 43.6831 8.57478 44.054 8.42819C44.4249 8.2816 44.7546 8.04643 45.0145 7.74306L45.0227 7.73168C45.0347 7.71705 45.0435 7.70015 45.0488 7.68198C45.054 7.66382 45.0555 7.64478 45.0532 7.62602C45.0509 7.60725 45.0448 7.58915 45.0353 7.57282C45.0258 7.55648 45.0131 7.54225 44.998 7.53099L44.2763 6.98582C44.2483 6.96496 44.2136 6.95531 44.1789 6.95876C44.1442 6.9622 44.1121 6.97848 44.0887 7.00444L44.0825 7.01064C43.9295 7.17416 43.7361 7.2941 43.5219 7.35828C43.3077 7.42246 43.0804 7.42858 42.8631 7.37604C42.6458 7.32349 42.4462 7.21415 42.2846 7.05912C42.1231 6.90409 42.0053 6.7089 41.9433 6.4934L45.3619 6.48513C45.3971 6.48473 45.4309 6.47113 45.4566 6.44702C45.4824 6.42291 45.4982 6.39001 45.5011 6.35478C45.5014 6.32938 45.5021 6.30326 45.5028 6.27675L45.5029 6.27376L45.503 6.27121C45.5041 6.22821 45.5052 6.18424 45.5052 6.14064ZM42 5.60789C42.1012 5.38748 42.2632 5.20079 42.4668 5.06993C42.6704 4.93907 42.9072 4.86952 43.149 4.86952C43.3908 4.86952 43.6276 4.93907 43.8312 5.06993C44.0348 5.20079 44.1968 5.38748 44.298 5.60789H42Z" fill="black"/>
<path fill-rule="evenodd" clip-rule="evenodd" d="M54.2258 5.60789C54.2648 5.78277 54.2845 5.96143 54.2846 6.14064C54.2846 6.21306 54.2846 6.28651 54.2804 6.35478C54.2778 6.3901 54.2621 6.42313 54.2363 6.44729C54.2105 6.47145 54.1766 6.48496 54.1413 6.48513L50.7227 6.4934C50.7847 6.7089 50.9025 6.90409 51.064 7.05912C51.2256 7.21415 51.4251 7.32349 51.6425 7.37604C51.8598 7.42858 52.0871 7.42246 52.3012 7.35828C52.5154 7.2941 52.7089 7.17416 52.8619 7.01064L52.8681 7.00444C52.8915 6.97848 52.9236 6.9622 52.9583 6.95876C52.993 6.95531 53.0277 6.96496 53.0557 6.98582L53.7774 7.53099C53.7837 7.53582 53.7895 7.54116 53.7949 7.54694C53.8022 7.55487 53.8087 7.56363 53.8141 7.57307C53.8234 7.58941 53.8294 7.60744 53.8317 7.62613C53.834 7.64481 53.8326 7.66377 53.8275 7.68189C53.8224 7.70001 53.8138 7.71694 53.8021 7.73168L53.7928 7.74306C53.533 8.04649 53.2033 8.28171 52.8323 8.42832C52.4613 8.57493 52.0603 8.6285 51.664 8.58438C51.2678 8.54027 50.8882 8.39979 50.5583 8.17515C50.2284 7.95051 49.9581 7.64848 49.7708 7.29527C49.5836 6.94206 49.485 6.54834 49.4838 6.14827C49.4825 5.7482 49.5785 5.35385 49.7635 4.99945C49.9485 4.64505 50.2169 4.3413 50.5454 4.11455C50.8738 3.88779 51.2525 3.74489 51.6485 3.69823C52.9392 3.55133 53.9629 4.41927 54.2258 5.60789ZM51.2458 5.06973C51.0423 5.20066 50.8804 5.38743 50.7794 5.60789H53.0763C52.9754 5.38743 52.8135 5.20066 52.6099 5.06973C52.4064 4.9388 52.1697 4.8692 51.9279 4.8692C51.6861 4.8692 51.4494 4.9388 51.2458 5.06973Z" fill="black"/>
<path fill-rule="evenodd" clip-rule="evenodd" d="M30.6392 8.6555C30.1437 8.65448 29.6597 8.50612 29.2482 8.22916C28.8368 7.95221 28.5164 7.55909 28.3275 7.09948C28.1386 6.63987 28.0897 6.13438 28.1869 5.64689C28.2842 5.15941 28.5233 4.71179 28.874 4.36061C29.2247 4.00942 29.6713 3.77042 30.1573 3.6738C30.6433 3.57718 31.147 3.62728 31.6046 3.81778C32.0623 4.00827 32.4534 4.3306 32.7285 4.74405C33.0037 5.1575 33.1505 5.64351 33.1505 6.14067C33.1497 6.80829 32.8847 7.44825 32.4138 7.91985C31.9428 8.39144 31.3045 8.65605 30.6392 8.6555ZM30.6392 4.92619C30.3996 4.92619 30.1653 4.99751 29.9661 5.13112C29.7669 5.26472 29.6116 5.45462 29.52 5.67679C29.4283 5.89896 29.4044 6.14341 29.4512 6.37922C29.498 6.61504 29.6135 6.83162 29.783 7.00158C29.9525 7.17153 30.1685 7.28721 30.4035 7.334C30.6385 7.38078 30.8822 7.35656 31.1035 7.2644C31.3248 7.17225 31.5139 7.01629 31.6469 6.81626C31.7799 6.61624 31.8507 6.38112 31.8505 6.14067C31.85 5.81856 31.7221 5.50982 31.4951 5.28215C31.268 5.05448 30.9602 4.92647 30.6392 4.92619Z" fill="black"/>
<path d="M47.3619 4.10581C47.791 3.818 48.2897 3.65213 48.8052 3.6258C48.8243 3.62453 48.8434 3.6272 48.8614 3.63363C48.8795 3.64007 48.896 3.65014 48.91 3.66322C48.924 3.6763 48.9352 3.69212 48.9429 3.7097C48.9505 3.72729 48.9546 3.74626 48.9546 3.76546V4.82167C48.9545 4.85724 48.9409 4.89143 48.9166 4.91734C48.8923 4.94325 48.8591 4.95897 48.8237 4.96132C47.9815 5.00581 47.5557 5.47546 47.3629 5.80029V8.36684C47.3629 8.38518 47.3593 8.40334 47.3523 8.42029C47.3486 8.42927 47.344 8.43783 47.3385 8.44581C47.3337 8.45288 47.3282 8.4595 47.3222 8.46559C47.3092 8.47856 47.2939 8.48885 47.277 8.49586C47.2601 8.50288 47.242 8.5065 47.2237 8.5065H46.1711C46.1528 8.50663 46.1346 8.50312 46.1176 8.49616C46.1006 8.48921 46.0851 8.47894 46.0721 8.46596C46.059 8.45298 46.0487 8.43754 46.0416 8.42053C46.0383 8.41253 46.0358 8.40427 46.034 8.39583C46.0328 8.39024 46.0319 8.38457 46.0315 8.37886C46.0311 8.37487 46.031 8.37086 46.031 8.36684V3.91856C46.0312 3.88143 46.0461 3.84591 46.0724 3.81975C46.0987 3.79359 46.1341 3.77891 46.1711 3.77891H47.2227C47.2595 3.77918 47.2948 3.79398 47.3208 3.82011C47.3469 3.84624 47.3616 3.88161 47.3619 3.91856V4.10581Z" fill="black"/>
<path d="M33.8114 6.89373L34.5165 6.40131C34.6483 6.30905 34.7593 6.18999 34.8423 6.05186C34.9252 5.91373 34.9783 5.75964 34.998 5.59959V3.7789C34.998 3.7382 34.9819 3.69915 34.9534 3.67027C34.9248 3.64139 34.886 3.62504 34.8454 3.62476H33.8258C33.8056 3.62476 33.7857 3.62875 33.767 3.63649C33.7484 3.64424 33.7315 3.65559 33.7172 3.66991C33.7029 3.68422 33.6916 3.70121 33.6839 3.71992C33.6762 3.73862 33.6722 3.75866 33.6722 3.7789V6.82131C33.6723 6.8375 33.6769 6.85333 33.6853 6.86713C33.6937 6.88092 33.7057 6.89215 33.72 6.8996C33.7344 6.90705 33.7504 6.91043 33.7665 6.9094C33.7826 6.90837 33.7981 6.90295 33.8114 6.89373Z" fill="black"/>
<path d="M33.7134 7.76476C33.7232 7.74175 33.7393 7.72202 33.7598 7.70787L34.9949 6.872L36.2072 6.0558C36.374 5.94306 36.5706 5.88283 36.7717 5.88283C36.9728 5.88283 37.1693 5.94306 37.3361 6.0558L37.7763 6.35269L38.5794 6.89269V4.92718C38.5794 4.88013 38.5825 4.83312 38.5887 4.78649V3.7789C38.5887 3.7382 38.6047 3.69915 38.6333 3.67027C38.6619 3.64139 38.7007 3.62504 38.7413 3.62476H39.7619C39.8024 3.62504 39.8413 3.64139 39.8699 3.67027C39.8984 3.69915 39.9145 3.7382 39.9145 3.7789V7.48649C39.914 7.52905 39.9109 7.57155 39.9052 7.61373C39.9047 7.61958 39.9047 7.62546 39.9052 7.63131C39.8988 7.67141 39.8902 7.71113 39.8794 7.75028C39.88 7.75475 39.88 7.75926 39.8794 7.76373C39.8782 7.76846 39.8767 7.77311 39.875 7.77766C39.8741 7.77994 39.8732 7.7822 39.8722 7.78442L39.866 7.80718C39.8588 7.8289 39.8516 7.85166 39.8433 7.87131C39.8355 7.88992 39.8268 7.90853 39.8189 7.92539L39.8175 7.92821C39.8114 7.9413 39.8047 7.95381 39.7978 7.9666L39.7907 7.97994C39.7857 7.98956 39.7803 7.99888 39.7746 8.0084C39.7699 8.01626 39.765 8.02427 39.7598 8.03269C39.7485 8.05131 39.7382 8.06787 39.7227 8.08752C39.7176 8.09404 39.7128 8.10032 39.708 8.10661C39.6984 8.11929 39.6887 8.13196 39.6763 8.14649C39.6578 8.16821 39.631 8.19821 39.6186 8.21062C39.6064 8.2229 39.5931 8.23417 39.5799 8.24542L39.5794 8.2458C39.5618 8.26242 39.5432 8.27797 39.5238 8.29235L39.4835 8.32235C39.4567 8.34097 39.4289 8.35855 39.4 8.37511L39.3815 8.38649C39.2189 8.47377 39.0357 8.5149 38.8516 8.50545C38.6646 8.497 38.4834 8.43725 38.3279 8.33269L36.9083 7.37787C36.8931 7.36809 36.8768 7.3601 36.8598 7.35407C36.8396 7.34878 36.8188 7.346 36.798 7.3458C36.752 7.34544 36.7071 7.35915 36.6691 7.38511L35.2588 8.33373C35.1057 8.43682 34.9275 8.49619 34.7433 8.50545H34.7135C34.5269 8.51502 34.3412 8.47354 34.1763 8.38545C33.9674 8.27397 33.8037 8.09289 33.7134 7.87338C33.7058 7.85631 33.7018 7.8378 33.7018 7.81907C33.7018 7.80035 33.7058 7.78184 33.7134 7.76476Z" fill="black"/>
</svg>
