<svg width="16" height="16" viewBox="0 0 16 16" fill="none" xmlns="http://www.w3.org/2000/svg">
<circle cx="8" cy="8" r="8" fill="#386EEC"/>
<path d="M4.59538 9.28224C4.32009 6.734 5.90184 4.24667 5.98466 4.03344C6.06749 3.82021 7.17564 2.85597 8.19982 3.22737C9.22399 3.5976 9.1505 4.36735 8.86121 4.72117C8.60342 5.44171 7.57458 5.22028 7.31679 5.05391C7.059 4.88754 6.94935 5.20153 6.94935 5.20153C7.24797 6.33331 7.19547 7.50257 7.14765 8.038C7.14765 8.038 6.3906 8.5207 6.31478 9.0034C6.31478 9.0034 6.37427 8.82298 7.11382 8.3391C8.16132 7.65488 9.20999 8.65426 9.20999 8.65426C9.48528 8.28521 10.2237 8.52539 10.2237 8.52539L10.233 8.54296C10.24 8.47735 10.2435 8.43752 10.2435 8.43752H11.4193C11.5698 8.43752 11.6654 8.59803 11.5954 8.73159L9.81773 12.0847C9.78273 12.1503 9.71508 12.1902 9.64159 12.1902H8.58242C8.64541 12.148 8.70374 12.0988 8.76206 12.0508C8.43895 11.991 8.24298 11.8774 8.1205 11.7672C8.54626 11.465 8.58359 11.0713 8.58359 11.0713C8.58359 11.0713 8.25114 11.4462 7.92453 11.4802C5.80969 11.5727 5.62655 10.5195 5.62655 10.5195C5.62655 10.5195 5.46091 10.7409 4.74353 10.4082C4.02614 10.0754 4.59538 9.28224 4.59538 9.28224Z" fill="white"/>
</svg>
