<svg width="16" height="16" viewBox="0 0 16 16" fill="none" xmlns="http://www.w3.org/2000/svg">
<circle cx="8" cy="8" r="8" fill="#386EEC"/>
<path d="M12.5914 5.84308C12.4417 5.49572 12.2273 5.18522 11.9559 4.91828C11.6845 4.65245 11.3695 4.4447 11.0177 4.29839C10.6547 4.1476 10.2704 4.07165 9.87394 4.07165C9.3233 4.07165 8.78606 4.22244 8.31919 4.50725C8.2075 4.57538 8.10139 4.65021 8.00087 4.73175C7.90035 4.65021 7.79424 4.57538 7.68255 4.50725C7.21568 4.22244 6.67844 4.07165 6.1278 4.07165C5.73129 4.07165 5.34707 4.1476 4.98407 4.29839C4.63336 4.44358 4.31727 4.65245 4.04586 4.91828C3.77334 5.18522 3.56 5.49572 3.41034 5.84308C3.25509 6.20385 3.17578 6.58695 3.17578 6.98122C3.17578 7.35316 3.25173 7.74073 3.40252 8.135C3.52873 8.46449 3.70967 8.80627 3.94087 9.1514C4.30722 9.69757 4.81095 10.2672 5.43643 10.8446C6.47293 11.8018 7.49937 12.4631 7.54293 12.4899L7.80764 12.6596C7.92492 12.7345 8.0757 12.7345 8.19298 12.6596L8.45769 12.4899C8.50125 12.4619 9.52658 11.8018 10.5642 10.8446C11.1897 10.2672 11.6934 9.69757 12.0598 9.1514C12.291 8.80627 12.473 8.46449 12.5981 8.135C12.7489 7.74073 12.8248 7.35316 12.8248 6.98122C12.826 6.58695 12.7467 6.20385 12.5914 5.84308Z" fill="white"/>
<path d="M2.91874 8.59362H4.83686L5.73895 7.05939L7.41287 9.72807L8.24151 8.59362H9.42004" stroke="#386EEC" stroke-width="0.8" stroke-linecap="round" stroke-linejoin="round"/>
</svg>
