<svg width="16" height="16" viewBox="0 0 16 16" fill="none" xmlns="http://www.w3.org/2000/svg">
<circle cx="8" cy="8" r="8" fill="#386EEC"/>
<path d="M4.36731 4.4483C4.34191 4.4483 4.31692 4.4548 4.29474 4.46718C4.27255 4.47956 4.2539 4.4974 4.24055 4.51902C4.22721 4.54063 4.21961 4.56531 4.21848 4.59069C4.21736 4.61607 4.22274 4.64131 4.23412 4.66403L5.27698 6.74974C5.28936 6.77445 5.30838 6.79523 5.3319 6.80976C5.35543 6.82428 5.38252 6.83197 5.41017 6.83197H7.46072C7.48612 6.83197 7.51111 6.82547 7.53329 6.8131C7.55548 6.80072 7.57413 6.78288 7.58748 6.76126C7.60083 6.73964 7.60842 6.71497 7.60955 6.68959C7.61067 6.66421 7.60529 6.63896 7.59391 6.61625L6.55105 4.53054C6.53867 4.50583 6.51965 4.48504 6.49613 4.47052C6.47261 4.456 6.44551 4.4483 6.41786 4.4483H4.36731ZM11.6321 4.4483C11.6575 4.4483 11.6825 4.4548 11.7047 4.46718C11.7269 4.47956 11.7456 4.4974 11.7589 4.51902C11.7722 4.54063 11.7798 4.56531 11.781 4.59069C11.7821 4.61607 11.7767 4.64131 11.7653 4.66403L10.7225 6.74974C10.7101 6.77445 10.6911 6.79523 10.6676 6.80976C10.644 6.82428 10.6169 6.83197 10.5893 6.83197H8.53873C8.51333 6.83197 8.48835 6.82547 8.46616 6.8131C8.44397 6.80072 8.42532 6.78288 8.41197 6.76126C8.39863 6.73964 8.39103 6.71497 8.38991 6.68959C8.38878 6.66421 8.39417 6.63896 8.40555 6.61625L9.4484 4.53054C9.46079 4.50583 9.4798 4.48504 9.50332 4.47052C9.52685 4.456 9.55395 4.4483 9.58159 4.4483H11.6321Z" fill="white"/>
<path d="M11.5694 8.91777C11.5694 10.889 9.97123 12.4872 8.00004 12.4872C6.02885 12.4872 4.43066 10.889 4.43066 8.91777C4.43066 6.94658 6.02885 5.34839 8.00004 5.34839C9.97123 5.34839 11.5694 6.94658 11.5694 8.91777Z" fill="white"/>
<path d="M9.32161 8.93742C9.32161 9.66727 8.72985 10.259 8 10.259C7.27015 10.259 6.67838 9.66727 6.67838 8.93742C6.67838 8.20757 7.27015 7.6158 8 7.6158C8.72985 7.6158 9.32161 8.20757 9.32161 8.93742Z" stroke="#386EEC" stroke-width="0.666667"/>
</svg>
