<svg width="16" height="17" viewBox="0 0 16 17" fill="none" xmlns="http://www.w3.org/2000/svg">
<circle cx="8" cy="8.5" r="8" fill="#386EEC"/>
<path fill-rule="evenodd" clip-rule="evenodd" d="M11.5984 7.15545C11.8454 6.90847 11.8454 6.50803 11.5984 6.26105C11.3514 6.01407 10.951 6.01407 10.704 6.26105L7.27829 9.68674L5.64138 8.04982C5.3944 7.80284 4.99396 7.80284 4.74698 8.04982C4.5 8.2968 4.5 8.69724 4.74698 8.94422L6.78031 10.9776C6.79509 10.9961 6.81107 11.014 6.82824 11.0312C6.95329 11.1562 7.11769 11.218 7.28159 11.2164C7.44329 11.2163 7.60494 11.1545 7.72831 11.0312C7.74539 11.0141 7.76129 10.9963 7.77601 10.9778L11.5984 7.15545Z" fill="white"/>
</svg>
