<svg width="150" height="150" viewBox="0 0 150 150" fill="none" xmlns="http://www.w3.org/2000/svg">
<path d="M14.25 26.25C13.4216 26.25 12.75 26.9216 12.75 27.75V84.75C12.75 85.5784 13.4216 86.25 14.25 86.25H90C90.8284 86.25 91.5 85.5784 91.5 84.75V27.75C91.5 26.9216 90.8284 26.25 90 26.25H14.25Z" fill="#E2E8F5"/>
<path opacity="0.5" d="M61.7597 40.1642L42.5748 40.0034C42.3499 40.0015 42.1607 40.8218 42.1522 41.8357L42.0154 58.1636C42.0069 59.1775 42.1823 60.0008 42.4072 60.0027L61.5921 60.1635C61.817 60.1654 62.0062 59.3451 62.0147 58.3313L62.1515 42.0033C62.16 40.9895 61.9846 40.1661 61.7597 40.1642Z" fill="#BCC8E4"/>
<path opacity="0.5" d="M70.5265 67.3142L33.8142 67.0065C33.3839 67.0029 33.0336 67.1716 33.0318 67.3834L33.0032 70.7935C33.0015 71.0052 33.3489 71.1798 33.7792 71.1834L70.4915 71.4911C70.9218 71.4947 71.2721 71.326 71.2739 71.1143L71.3025 67.7041C71.3042 67.4924 70.9568 67.3178 70.5265 67.3142Z" fill="#BCC8E4"/>
<path d="M138 127.5C138 128.328 137.328 129 136.5 129L79.5 129C78.6716 129 78 128.328 78 127.5L78 51.75C78 50.9216 78.6716 50.25 79.5 50.25L136.5 50.25C137.328 50.25 138 50.9216 138 51.75L138 127.5Z" fill="#F0F3FA"/>
<path d="M117.76 70.1642L98.5748 70.0034C98.3499 70.0015 98.1607 70.8218 98.1522 71.8357L98.0154 88.1636C98.0069 89.1775 98.1823 90.0008 98.4072 90.0027L117.592 90.1635C117.817 90.1654 118.006 89.3451 118.015 88.3313L118.152 72.0033C118.16 70.9895 117.985 70.1661 117.76 70.1642Z" fill="#E2E8F5"/>
<path d="M126.527 102.314L89.8142 102.007C89.3839 102.003 89.0336 102.172 89.0318 102.383L89.0032 105.794C89.0015 106.005 89.3489 106.18 89.7792 106.183L126.491 106.491C126.922 106.495 127.272 106.326 127.274 106.114L127.302 102.704C127.304 102.492 126.957 102.318 126.527 102.314Z" fill="#E2E8F5"/>
<path d="M112.641 111.198L89.5256 111.004C89.2547 111.002 89.0336 111.172 89.0318 111.383L89.0032 114.794C89.0015 115.005 89.2197 115.179 89.4906 115.181L112.606 115.375C112.877 115.377 113.098 115.207 113.1 114.995L113.128 111.585C113.13 111.374 112.912 111.2 112.641 111.198Z" fill="#E2E8F5"/>
<path d="M111.75 33C111.75 33 87.0373 74.6652 65.6577 73.4881C44.2781 72.3104 64.7975 44.2687 78.2062 55.4762C91.6143 66.6837 74.6273 99.9553 54 105.75" stroke="black" stroke-width="3.75" stroke-miterlimit="10"/>
<path d="M50 107.5C50 107.5 49.5086 110.242 43.4293 109.666C37.35 109.088 32.8466 111.47 31.25 116.143C31.25 116.143 46.0492 125.958 50 107.5Z" fill="#386EEC"/>
</svg>
