<svg width="150" height="150" viewBox="0 0 150 150" fill="none" xmlns="http://www.w3.org/2000/svg">
<mask id="mask0_1484_7673" style="mask-type:alpha" maskUnits="userSpaceOnUse" x="2" y="18" width="147" height="126">
<path d="M148.576 70.7375C148.576 111.06 115.888 143.748 75.5651 143.748C35.2423 143.748 2.5542 111.06 2.5542 70.7375C2.5542 30.4147 37.9106 18 78.2334 18C118.556 18 148.576 30.4147 148.576 70.7375Z" fill="#D9D9D9"/>
</mask>
<g mask="url(#mask0_1484_7673)">
<path d="M112.811 123.91C113.753 128.306 118.049 133.206 122.315 137.087C124.247 138.843 123.109 142.327 120.499 142.388L87.9038 143.154C86.376 143.189 85.1167 141.958 84.9013 140.445C84.1907 135.461 81.6826 128.185 76.6886 119.696C70.6682 109.461 70.0664 87.1858 71.8724 84.1756C73.6784 81.1654 75.5904 57.6018 76.6886 50.4616C77.8928 42.6345 82.3081 44.0395 85.1174 44.4412C85.1174 38.4208 87.1305 33.5007 90.5361 31.7979C92.9438 30.5937 95.954 31.1961 96.5565 33.6046C97.1582 29.9926 99.5667 26.9817 104.383 27.5835C109.162 28.1811 108.933 34.5055 108.531 37.7165C109.334 36.1113 113.149 33.2706 116.424 34.2064C119.434 35.0661 120.036 37.2166 120.036 39.625C120.036 42.0327 117.628 49.8591 114.618 63.7059C112.209 74.7838 114.417 86.3832 115.821 90.7978C115.42 87.1858 120.036 77.9913 127.862 75.145C137.797 71.5323 140.505 79.3594 138.699 81.7679C133.882 85.9816 130.27 88.9918 125.454 101.635C116.815 124.314 111.005 115.482 112.811 123.91V123.91Z" fill="#F0F3FA"/>
<path d="M33.8749 107.421C39.4722 120.993 36.1589 132.667 31.8805 139.766C30.539 141.992 32.1009 145.671 34.6781 145.668L67.5266 145.635C69.3203 145.633 70.6979 143.911 70.6152 142.098C70.3913 137.154 71.2334 128.726 75.5442 118.431C82.5962 101.592 78.1087 89.935 75.5442 82.1634C74.5305 79.0916 67.2108 56.2585 63.3641 51.0772C60.2867 46.9328 56.3122 46.1124 55.0299 46.544C54.3892 45.2493 54.3892 42.0109 51.8247 36.8296C49.8155 32.7702 45.2002 32.5122 42.8498 32.9438C42.209 31.0009 40.5538 28.4106 37.0801 28.4106C32.2147 28.4106 31.3104 32.2964 31.9519 34.8867C25.5407 35.5348 24.2274 41.8758 26.3129 48.7385C29.759 60.0792 33.386 73.7445 34.5156 84.1063C33.4475 81.3003 28.7721 75.1622 21.0533 73.7445C14.002 72.449 13.6453 79.5732 15.925 82.1634C21.0533 87.9928 26.1822 88.7696 33.8749 107.421V107.421Z" fill="#E2E8F5"/>
<path d="M82.3276 76.1734C82.1937 71.381 82.6679 68.0061 83.3944 61.4292C84.0346 55.6327 84.2019 53.4097 85.3908 45.204M42.3735 33.6031C40.5675 34.2056 41.1672 38.0784 42.3735 41.2936C44.1795 46.1105 50.8547 62.586 53.2987 77.5959L42.3735 33.6031ZM31.6569 36.4076C32.2586 38.2952 34.6601 44.6092 35.7123 47.6243C38.5998 55.8962 41.9956 66.1241 44.0903 77.6433L31.6569 36.4076ZM53.5783 46.8489C52.6704 47.6661 51.9438 49.9414 53.5783 52.8818C55.622 56.5566 60.6265 68.87 62.0232 77.9453L53.5783 46.8489ZM100.199 111.413C99.4133 109.873 98.3646 107.171 99.0193 104.172C100.091 99.1192 105.325 96.0922 108.022 94.5456C112.916 91.7209 114.988 92.5814 116.404 89.9903L100.199 111.413ZM102.849 72.2107C98.6715 72.26 94.5123 72.77 90.4468 73.7315C84.296 75.2147 79.3843 77.6022 75.8714 79.6292L102.849 72.2107ZM102.263 72.1096C102.485 67.1003 102.583 63.8384 103.948 56.4513C105.062 50.4225 106.312 46.1286 108.777 37.6788L102.263 72.1096ZM91.5158 73.4512C91.3631 67.7279 92.1294 63.8746 92.955 55.3551C93.6293 48.4031 94.579 42.822 96.6214 34.654L91.5158 73.4512Z" stroke="black" stroke-width="2" stroke-miterlimit="10" stroke-linecap="round" stroke-linejoin="round"/>
<path d="M77.0345 85.974C79.8271 94.7006 79.8271 106.917 74.884 117.288" stroke="black" stroke-width="2" stroke-linecap="round"/>
</g>
<path d="M117 25C117.796 25 118.559 24.6839 119.121 24.1213C119.684 23.5587 120 22.7956 120 22C120 21.2044 119.684 20.4413 119.121 19.8787C118.559 19.3161 117.796 19 117 19C116.204 19 115.441 19.3161 114.879 19.8787C114.316 20.4413 114 21.2044 114 22C114 22.7956 114.316 23.5587 114.879 24.1213C115.441 24.6839 116.204 25 117 25V25Z" fill="#386EEC"/>
<path opacity="0.3" d="M51.5 29C52.6935 29 53.8381 28.5259 54.682 27.682C55.5259 26.8381 56 25.6935 56 24.5C56 23.3065 55.5259 22.1619 54.682 21.318C53.8381 20.4741 52.6935 20 51.5 20C50.3065 20 49.1619 20.4741 48.318 21.318C47.4741 22.1619 47 23.3065 47 24.5C47 25.6935 47.4741 26.8381 48.318 27.682C49.1619 28.5259 50.3065 29 51.5 29Z" fill="#386EEC"/>
<path opacity="0.6" d="M69.0003 40C69.3943 40 69.7844 39.9223 70.1483 39.7715C70.5123 39.6207 70.843 39.3997 71.1215 39.1211C71.4001 38.8425 71.621 38.5118 71.7718 38.1478C71.9225 37.7838 72 37.3937 72 36.9997C72 36.6057 71.9223 36.2156 71.7715 35.8517C71.6207 35.4877 71.3997 35.157 71.1211 34.8785C70.8425 34.5999 70.5118 34.379 70.1478 34.2282C69.7838 34.0775 69.3937 34 68.9997 34C68.2041 34.0001 67.441 34.3162 66.8785 34.8789C66.3159 35.4415 65.9999 36.2046 66 37.0003C66.0001 37.7959 66.3162 38.559 66.8789 39.1215C67.4415 39.6841 68.2046 40.0001 69.0003 40V40Z" fill="#386EEC"/>
<path d="M12.9179 72C13.3011 72 13.6806 71.923 14.0346 71.7734C14.3887 71.6238 14.7104 71.4045 14.9814 71.1279C15.2524 70.8514 15.4674 70.5231 15.6141 70.1618C15.7607 69.8005 15.8363 69.4133 15.8363 69.0222C15.8363 68.6311 15.7609 68.2438 15.6143 67.8825C15.4677 67.5212 15.2527 67.1928 14.9818 66.9163C14.7108 66.6397 14.3892 66.4203 14.0351 66.2706C13.6811 66.1209 13.3016 66.0438 12.9184 66.0438C12.1445 66.0437 11.4022 66.3574 10.8549 66.9159C10.3076 67.4743 10.0001 68.2318 10 69.0216C9.99993 69.8115 10.3073 70.569 10.8545 71.1275C11.4017 71.6861 12.1439 71.9999 12.9179 72ZM124.901 56.3658C125.44 56.3658 125.973 56.2576 126.47 56.0474C126.967 55.8372 127.419 55.529 127.8 55.1406C128.18 54.7522 128.482 54.2911 128.688 53.7836C128.894 53.2761 129 52.7322 129 52.1829C129 51.6336 128.894 51.0897 128.688 50.5822C128.482 50.0747 128.18 49.6136 127.8 49.2251C127.419 48.8367 126.967 48.5286 126.47 48.3184C125.973 48.1082 125.44 48 124.901 48C123.814 48 122.772 48.4407 122.003 49.2251C121.234 50.0096 120.803 51.0735 120.803 52.1829C120.803 53.2923 121.234 54.3562 122.003 55.1406C122.772 55.9251 123.814 56.3658 124.901 56.3658V56.3658Z" fill="#386EEC"/>
</svg>
