<svg width="150" height="150" viewBox="0 0 150 150" fill="none" xmlns="http://www.w3.org/2000/svg">
<path d="M127.367 108.848C127.307 109.184 127.181 109.506 126.994 109.795C126.808 110.083 126.566 110.332 126.282 110.529C125.998 110.725 125.678 110.864 125.339 110.938C125 111.012 124.65 111.02 124.309 110.961L89.5523 104.933C89.4319 104.912 89.3207 104.856 89.2335 104.772C89.1463 104.687 89.0872 104.578 89.064 104.46L87.0112 94.0704C86.9914 93.9703 86.998 93.8669 87.0304 93.7701C87.0628 93.6733 87.1199 93.5864 87.1963 93.5177L95.2201 86.2725L88.0145 74.8373C87.9355 74.712 87.9065 74.5622 87.9333 74.417C87.9601 74.2719 88.0407 74.1417 88.1594 74.0518L98.6452 66.0889C98.7438 66.0139 98.8165 65.9107 98.8533 65.7933C98.8901 65.676 98.8893 65.5504 98.8509 65.4336L95.2481 54.4779L102.076 46.7491C102.167 46.6464 102.219 46.5163 102.224 46.3805C102.229 46.2446 102.187 46.111 102.105 46.0019L96.3421 38.3829L102.767 34.9556C102.852 34.9101 102.925 34.845 102.979 34.7659C103.033 34.6868 103.068 34.596 103.079 34.5011C103.09 34.4062 103.078 34.31 103.044 34.2206C103.01 34.1313 102.954 34.0514 102.882 33.9877L92.3874 24.7411L104.463 18.0757C104.585 18.0088 104.726 17.9852 104.863 18.0091L139.816 24.0702C140.158 24.1294 140.485 24.2544 140.777 24.438C141.07 24.6216 141.323 24.8602 141.522 25.1403C141.721 25.4203 141.862 25.7362 141.937 26.0701C142.012 26.4039 142.02 26.749 141.96 27.0858L127.367 108.848V108.848Z" fill="#E2E8F5"/>
<path d="M9.08792 65.1579C8.90948 64.4868 9.00496 63.7722 9.35335 63.1714C9.70174 62.5706 10.2745 62.1328 10.9457 61.9542L44.5437 53.0203C44.6473 52.9926 44.7565 52.9933 44.8598 53.0222C44.9631 53.0512 45.0568 53.1074 45.1309 53.1849C45.2051 53.2625 45.257 53.3585 45.2813 53.463C45.3056 53.5675 45.3014 53.6766 45.2691 53.779L42.2562 63.3298C42.2186 63.4488 42.2191 63.5766 42.2577 63.6954C42.2964 63.8141 42.3712 63.9177 42.4716 63.9919L50.1514 69.6629L46.3912 75.2266C46.3119 75.3439 46.2767 75.4855 46.292 75.6263C46.3072 75.7671 46.3719 75.8979 46.4745 75.9955L52.8137 82.0348L49.2303 91.0545C49.2008 91.1287 49.1865 91.208 49.1881 91.2879C49.1897 91.3677 49.2073 91.4464 49.2398 91.5194C49.2723 91.5923 49.3191 91.658 49.3774 91.7126C49.4357 91.7672 49.5043 91.8096 49.5792 91.8373L58.1776 95.0211L49.8876 103.131C49.8187 103.199 49.7671 103.282 49.7372 103.374C49.7073 103.465 49.6999 103.563 49.7158 103.658C49.7317 103.753 49.7703 103.843 49.8284 103.92C49.8865 103.997 49.9623 104.059 50.0494 104.1L58.4691 108.1L55.6468 120.509C55.6189 120.632 55.6307 120.762 55.6805 120.878C55.7304 120.994 55.8158 121.092 55.9245 121.157L64.046 125.992C64.5017 126.263 64.4063 126.949 63.8939 127.085L30.6176 135.934C30.2853 136.022 29.9388 136.044 29.5979 135.999C29.257 135.953 28.9284 135.841 28.6309 135.668C28.3334 135.496 28.0728 135.266 27.864 134.993C27.6552 134.72 27.5022 134.408 27.4139 134.076L9.08792 65.1579Z" fill="#E2E8F5"/>
<path d="M34.7983 65.9353L19.0428 70.3622C18.6946 70.46 18.4618 70.7153 18.5228 70.9324L19.3571 73.9018C19.4181 74.1189 19.7498 74.2155 20.098 74.1177L35.8535 69.6908C36.2017 69.593 36.4345 69.3377 36.3735 69.1206L35.5392 66.1512C35.4782 65.9341 35.1465 65.8374 34.7983 65.9353Z" fill="#BBC8E4"/>
<mask id="mask0_1484_7701" style="mask-type:alpha" maskUnits="userSpaceOnUse" x="87" y="18" width="55" height="93">
<path d="M127.367 108.848C127.307 109.184 127.181 109.506 126.994 109.795C126.808 110.083 126.566 110.332 126.282 110.529C125.998 110.725 125.678 110.864 125.339 110.938C125 111.012 124.65 111.02 124.309 110.961L89.5523 104.933C89.4319 104.912 89.3207 104.856 89.2335 104.772C89.1463 104.687 89.0872 104.578 89.064 104.46L87.0112 94.0704C86.9914 93.9703 86.998 93.8669 87.0304 93.7701C87.0628 93.6733 87.1199 93.5864 87.1963 93.5177L95.2201 86.2725L88.0145 74.8373C87.9355 74.712 87.9065 74.5622 87.9333 74.417C87.9601 74.2719 88.0407 74.1417 88.1594 74.0518L98.6452 66.0889C98.7438 66.0139 98.8165 65.9107 98.8533 65.7933C98.8901 65.676 98.8893 65.5504 98.8509 65.4336L95.2481 54.4779L102.076 46.7491C102.167 46.6464 102.219 46.5163 102.224 46.3805C102.229 46.2446 102.187 46.111 102.105 46.0019L96.3421 38.3829L102.767 34.9556C102.852 34.9101 102.925 34.845 102.979 34.7659C103.033 34.6868 103.068 34.596 103.079 34.5011C103.09 34.4062 103.078 34.31 103.044 34.2206C103.01 34.1313 102.954 34.0514 102.882 33.9877L92.3874 24.7411L104.463 18.0757C104.585 18.0088 104.726 17.9852 104.863 18.0091L139.816 24.0702C140.158 24.1294 140.485 24.2544 140.777 24.438C141.07 24.6216 141.323 24.8602 141.522 25.1403C141.721 25.4203 141.862 25.7362 141.937 26.0701C142.012 26.4039 142.02 26.749 141.96 27.0858L127.367 108.848V108.848Z" fill="#E2E8F5"/>
</mask>
<g mask="url(#mask0_1484_7701)">
<path d="M131.735 38.7309L101.592 32.1399C101.238 32.0626 100.913 32.1789 100.865 32.3996L100.087 35.9538C100.039 36.1745 100.286 36.416 100.64 36.4932L130.783 43.0843C131.136 43.1615 131.462 43.0452 131.51 42.8246L132.287 39.2704C132.336 39.0497 132.088 38.8082 131.735 38.7309Z" fill="#BCC8E4"/>
<path d="M110.735 53.7309L80.5917 47.1399C80.2383 47.0626 79.9128 47.1789 79.8645 47.3996L79.0874 50.9538C79.0391 51.1745 79.2864 51.416 79.6398 51.4932L109.783 58.0843C110.136 58.1615 110.462 58.0452 110.51 57.8246L111.287 54.2704C111.336 54.0497 111.088 53.8082 110.735 53.7309Z" fill="#BCC8E4"/>
</g>
<path d="M84 126C105.54 126 123 108.539 123 87.0003C123 65.4609 105.54 48 84 48C62.461 48 45 65.4609 45 87.0003C45 108.539 62.461 126 84 126V126Z" fill="#F0F3FA"/>
<path d="M33 88C33 88 38.697 60.8668 59.6496 58.6751C73.2575 57.2454 62.1424 77.5431 52.8507 71.1981C43.5589 64.8531 52.1709 42.1342 64.9241 37" stroke="black" stroke-width="3" stroke-miterlimit="10"/>
<rect x="91" y="75" width="4" height="7" rx="2" fill="black"/>
<rect x="103" y="78" width="4" height="7" rx="2" fill="black"/>
<path d="M82.4527 103.383L84.8253 100.907L82.6591 98.8312L80.2866 101.307L82.4527 103.383ZM84.8253 100.907C89.369 96.1646 96.2754 94.5359 102.459 96.7481L103.47 93.9234C96.1719 91.3127 88.0214 93.2349 82.6591 98.8312L84.8253 100.907Z" fill="black"/>
<path d="M81.0504 89.5645C79.3843 91.2307 76.6829 91.2307 75.0168 89.5645C73.3506 87.8984 73.3506 85.197 75.0168 83.5309C76.6829 81.8647 83.5644 81.0168 83.5644 81.0168C83.5644 81.0168 82.7166 87.8984 81.0504 89.5645Z" fill="#386EEC"/>
<path d="M81.9277 78.8554C80.8631 78.8554 80 77.9923 80 76.9277C80 75.8631 80.8631 75 81.9277 75C82.9923 75 85.4618 76.9277 85.4618 76.9277C85.4618 76.9277 82.9923 78.8554 81.9277 78.8554Z" fill="#386EEC"/>
</svg>
